<?xml version="1.0" encoding="UTF-8" standalone="no" ?>
<!DOCTYPE svg PUBLIC "-//W3C//DTD SVG 1.1//EN" "http://www.w3.org/Graphics/SVG/1.1/DTD/svg11.dtd">
<svg xmlns="http://www.w3.org/2000/svg" xmlns:xlink="http://www.w3.org/1999/xlink" version="1.1" width="1000" height="1000" viewBox="0 0 500 500" xml:space="preserve">
<desc>Created with Fabric.js 4.6.0</desc>
<defs>
</defs>
<g transform="matrix(3.38 0 0 3.38 233.34 205.97)" id="WXmXLv3kDRvQZFKKhwmoc"  >
<path style="stroke: rgb(255,255,255); stroke-width: 0; stroke-dasharray: none; stroke-linecap: butt; stroke-dashoffset: 0; stroke-linejoin: miter; stroke-miterlimit: 4; fill: rgb(0,204,0); fill-rule: nonzero; opacity: 1;" vector-effect="non-scaling-stroke"  transform=" translate(0, 0)" d="M 20.11463 -12.42163 C 20.11463 -12.42163 21.054029999999997 -12.422270000000001 21.18592 -12.422270000000001 C 27.95065 -12.422270000000001 32.76374 -6.723290000000001 32.76374 0.0414399999999997 C 32.76374 6.80617 27.273519999999998 12.29638 20.5088 12.29638 C 20.376920000000002 12.29638 20.24552 12.294289999999998 20.114630000000002 12.290149999999999 L 20.114630000000002 12.422289999999998 L -20.35981 12.422289999999998 L -20.35981 12.390709999999999 C -20.42786 12.411189999999998 -20.49745 12.421649999999998 -20.56858 12.421649999999998 C -27.3003 12.421649999999998 -32.76373 6.958219999999998 -32.76373 0.22649999999999793 C -32.76373 -6.505220000000002 -27.300300000000004 -12.422280000000002 -20.568580000000004 -12.422280000000002 C -20.497540000000004 -12.422280000000002 -20.427950000000003 -12.410510000000002 -20.359810000000003 -12.387490000000003 L -20.359810000000003 -12.421640000000004 z M 13.04412 0.06697 C 13.04412 3.91695 16.16874 7.041580000000001 20.018729999999998 7.041580000000001 C 23.868709999999997 7.041580000000001 26.993339999999996 3.9169600000000004 26.993339999999996 0.06697000000000042 C 26.993339999999996 -3.7830099999999995 23.868719999999996 -6.90764 20.018729999999998 -6.90764 C 16.16875 -6.90764 13.044119999999998 -3.7830199999999996 13.044119999999998 0.06697000000000042 z M -26.34205 -0.03785 C -26.34205 3.80294 -23.22488 6.92011 -19.38409 6.92011 C -15.5433 6.92011 -12.42613 3.80294 -12.42613 -0.03784999999999972 C -12.42613 -3.87864 -15.5433 -6.99581 -19.38409 -6.99581 C -23.22488 -6.99581 -26.34205 -3.8786399999999994 -26.34205 -0.03784999999999972 z" stroke-linecap="round" />
</g>
<g transform="matrix(2.85 0 0 2.85 87.47 456.33)" id="4RuCYS-EmvqghTdclNusG"  >
<path style="stroke: rgb(0,0,0); stroke-width: 1; stroke-dasharray: none; stroke-linecap: butt; stroke-dashoffset: 0; stroke-linejoin: miter; stroke-miterlimit: 4; fill: rgb(255,255,255); fill-rule: nonzero; opacity: 1;" vector-effect="non-scaling-stroke"  transform=" translate(0, 0)" d="M 0 -5.81981 L 0 5.81981 z" stroke-linecap="round" />
</g>
<g transform="matrix(1.59 0 0 1.59 229.32 80.29)" id="EYD8Y-Ekuul_6vBNnDJuK"  >
<path style="stroke: rgb(192,112,149); stroke-width: 0; stroke-dasharray: none; stroke-linecap: butt; stroke-dashoffset: 0; stroke-linejoin: miter; stroke-miterlimit: 4; fill: rgb(0,204,0); fill-rule: nonzero; opacity: 1;" vector-effect="non-scaling-stroke"  transform=" translate(0, 0)" d="M 0 -13.60039 C 7.50742 -13.60039 13.60039 -7.507410000000001 13.60039 0 C 13.60039 7.50742 7.507410000000001 13.60039 0 13.60039 C -7.50742 13.60039 -13.60039 7.507410000000001 -13.60039 0 C -13.60039 -7.50742 -7.507410000000001 -13.60039 0 -13.60039 z" stroke-linecap="round" />
</g>
<g transform="matrix(1.59 0 0 1.59 343.91 249.71)" id="kSSLBG7vJu3mdKM95YQ1B"  >
<path style="stroke: rgb(0,0,0); stroke-width: 0; stroke-dasharray: none; stroke-linecap: butt; stroke-dashoffset: 0; stroke-linejoin: miter; stroke-miterlimit: 4; fill: rgb(58,59,58); fill-rule: nonzero; opacity: 1;" vector-effect="non-scaling-stroke"  transform=" translate(-60.96, -144.2)" d="M 0 0 L 121.2 0 C 122.83563000000001 75.89475 121.2 288.4 121.2 288.4 L 0 288.4 L 0 263.04616 C 0 263.04616 55.45967 250.36722999999998 72.13509 172.04109 C 80.51684 132.67119 106.7569 66.36099999999999 52.314060000000005 41.19999999999999 C 42.40088 36.61855999999999 31.709200000000006 31.855419999999988 18.87402 29.445939999999986 C 16.26453 20.075869999999988 9.142270000000002 12.579989999999984 0 9.451059999999988 z" stroke-linecap="round" />
</g>
<g transform="matrix(1.59 0 0 1.59 117.03 249.5)" id="Koi6HP8yZg5vpSkXY6fB0"  >
<path style="stroke: rgb(0,0,0); stroke-width: 0; stroke-dasharray: none; stroke-linecap: butt; stroke-dashoffset: 0; stroke-linejoin: miter; stroke-miterlimit: 4; fill: rgb(58,59,58); fill-rule: nonzero; opacity: 1;" vector-effect="non-scaling-stroke"  transform=" translate(-60.96, -144.2)" d="M 69.61289 41.2 C 15.170049999999996 66.361 41.41010999999999 132.67119000000002 49.79185999999999 172.04109 C 66.46727999999999 250.36723 121.92695 263.04616 121.92695 263.04616 L 121.92695 288.4 L 0.7269500000000022 288.4 C 0.7269500000000022 288.4 -0.9086799999999977 75.89474999999999 0.7269500000000022 0 L 121.92695 0 L 121.92695 9.65344 C 111.27788000000001 11.8682 102.7274 19.829929999999997 99.66922000000001 30.14492 C 88.31699 32.70352 78.64202 37.02713 69.61289000000001 41.2 z" stroke-linecap="round" />
</g>
</svg>